G04*
G04 #@! TF.GenerationSoftware,Altium Limited,Altium Designer,20.0.2 (26)*
G04*
G04 Layer_Physical_Order=1*
G04 Layer_Color=255*
%FSLAX44Y44*%
%MOMM*%
G71*
G01*
G75*
%ADD13R,0.9500X0.6500*%
%ADD14R,5.5031X2.5022*%
%ADD15R,1.0500X0.9500*%
%ADD16R,0.7350X0.8621*%
%ADD17R,1.0000X0.7500*%
%ADD18R,1.9000X1.9000*%
%ADD19R,1.9000X1.8000*%
%ADD20R,1.3500X0.4000*%
%ADD21C,0.7000*%
%ADD22C,1.6000*%
%ADD23C,1.5700*%
%ADD24R,1.5700X1.5700*%
%ADD25C,0.2540*%
D13*
X237000Y151000D02*
D03*
Y172000D02*
D03*
X209500D02*
D03*
Y161500D02*
D03*
Y151000D02*
D03*
D14*
X286000Y193009D02*
D03*
Y146000D02*
D03*
X153000Y193505D02*
D03*
Y146495D02*
D03*
D15*
X209000Y99000D02*
D03*
Y113500D02*
D03*
D16*
X226154Y206000D02*
D03*
X213846D02*
D03*
D17*
X105000Y176500D02*
D03*
Y161500D02*
D03*
D18*
X49450Y101200D02*
D03*
Y77200D02*
D03*
D19*
Y129200D02*
D03*
Y49200D02*
D03*
D20*
X76200Y102200D02*
D03*
Y76200D02*
D03*
Y95700D02*
D03*
Y89200D02*
D03*
Y82700D02*
D03*
D21*
X73950Y109950D02*
D03*
Y68450D02*
D03*
D22*
X152400Y76200D02*
D03*
Y101600D02*
D03*
D23*
X267300Y94000D02*
D03*
D24*
X292700D02*
D03*
D25*
X152600Y76000D02*
X209000D01*
Y97000D01*
X235980Y172000D02*
X237000D01*
X234000Y173980D02*
X235980Y172000D01*
X277000Y137000D02*
X286000Y146000D01*
X113000Y102000D02*
X152000D01*
X104000Y111000D02*
Y160500D01*
Y111000D02*
X113000Y102000D01*
X99000Y198000D02*
X148505D01*
X90000Y176512D02*
Y189000D01*
X99000Y198000D01*
X227000Y85000D02*
X236000Y94000D01*
X218000Y76000D02*
X227000Y85000D01*
Y81000D02*
Y85000D01*
Y81000D02*
X244000Y64000D01*
X286000Y193009D02*
X321991D01*
X328000Y98000D02*
Y187000D01*
X321991Y193009D02*
X328000Y187000D01*
X321000Y221000D02*
X338000Y204000D01*
Y80000D02*
Y204000D01*
X229195Y209041D02*
X241154Y221000D01*
X321000D01*
X209000Y113500D02*
Y128000D01*
X237000Y172000D02*
Y194519D01*
X226154Y205365D02*
X237000Y194519D01*
X246509Y151488D02*
Y193009D01*
X237000Y151000D02*
X238000Y150000D01*
X245021D01*
X246509Y151488D01*
X209000Y128000D02*
X218000Y137000D01*
X210000Y162000D02*
X216512D01*
X218000Y160512D01*
Y137000D02*
Y160512D01*
X209500Y161500D02*
X210000Y162000D01*
X194000Y173000D02*
Y196000D01*
Y155488D02*
Y173000D01*
X195000Y172000D02*
X209500D01*
X194000Y173000D02*
X195000Y172000D01*
X198488Y151000D02*
X209500D01*
X194000Y155488D02*
X198488Y151000D01*
X5000Y6000D02*
Y245000D01*
Y6000D02*
X6000Y5000D01*
X354000D01*
X356000Y7000D01*
Y245000D01*
X5000D02*
X356000D01*
X244000Y64000D02*
X322000D01*
X338000Y80000D01*
X246509Y193009D02*
X286000D01*
X226154Y205365D02*
Y206000D01*
Y206635D01*
X228559Y209041D01*
X229195D01*
X153000Y196000D02*
X194000D01*
X203846D01*
X213846Y205365D02*
Y206000D01*
X211441Y202959D02*
X213846Y205365D01*
X210805Y202959D02*
X211441D01*
X203846Y196000D02*
X210805Y202959D01*
X198000Y97000D02*
X209000D01*
X153000Y146495D02*
X163505D01*
X194000Y101000D02*
X198000Y97000D01*
X194000Y101000D02*
Y141000D01*
X164000Y146000D02*
X189000D01*
X194000Y141000D01*
X163505Y146495D02*
X164000Y146000D01*
X209000Y76000D02*
X218000D01*
X292700Y94000D02*
X293700Y93000D01*
X323000D01*
X328000Y98000D01*
X236000Y94000D02*
X267300D01*
X286000Y112700D01*
Y146000D01*
X152400Y76200D02*
X152600Y76000D01*
X148505Y198000D02*
X153000Y193505D01*
X90000Y176512D02*
X91488Y178000D01*
X152000Y195000D02*
X153000Y196000D01*
Y193505D02*
Y194000D01*
X152000Y195000D02*
X153000Y194000D01*
X104000Y160500D02*
X105000Y161500D01*
X152000Y102000D02*
X152400Y101600D01*
X81000Y102000D02*
Y102250D01*
X90000Y111250D02*
Y176512D01*
X103500Y178000D02*
X105000Y176500D01*
X91488Y178000D02*
X103500D01*
X81000Y102250D02*
X90000Y111250D01*
X76200Y102200D02*
X80800D01*
X81000Y102000D01*
X76200Y76200D02*
X152400D01*
X76200Y102200D02*
X76800Y101600D01*
M02*
